<svg width="36" height="36" viewBox="0 0 36 36" fill="none" xmlns="http://www.w3.org/2000/svg">
<g clip-path="url(#clip0_5295_8882)">
<path fill-rule="evenodd" clip-rule="evenodd" d="M18 3C17.4091 3 16.8239 3.1164 16.2779 3.34254C15.732 3.56869 15.2359 3.90016 14.818 4.31802C14.4002 4.73588 14.0687 5.23196 13.8425 5.77792C13.6164 6.32389 13.5 6.90905 13.5 7.5C13.5 8.09095 13.6164 8.67611 13.8425 9.22207C14.0687 9.76804 14.4002 10.2641 14.818 10.682C15.2359 11.0998 15.732 11.4313 16.2779 11.6575C16.8239 11.8836 17.4091 12 18 12C19.1935 12 20.3381 11.5259 21.182 10.682C22.0259 9.83807 22.5 8.69347 22.5 7.5C22.5 6.30653 22.0259 5.16193 21.182 4.31802C20.3381 3.47411 19.1935 3 18 3ZM10.5 7.5C10.5003 6.08095 10.9032 4.69111 11.6618 3.49188C12.4205 2.29266 13.5038 1.33327 14.7859 0.725139C16.068 0.11701 17.4964 -0.114903 18.905 0.0563379C20.3137 0.227578 21.6449 0.794944 22.744 1.69254C23.8431 2.59013 24.665 3.78112 25.1142 5.12718C25.5635 6.47324 25.6216 7.91913 25.2819 9.29691C24.9422 10.6747 24.2186 11.9278 23.1952 12.9108C22.1717 13.8938 20.8904 14.5662 19.5 14.85V22.5C19.5 22.8978 19.342 23.2794 19.0607 23.5607C18.7794 23.842 18.3978 24 18 24C17.6022 24 17.2206 23.842 16.9393 23.5607C16.658 23.2794 16.5 22.8978 16.5 22.5V14.85C14.8062 14.5037 13.284 13.5831 12.1907 12.2438C11.0974 10.9045 10.5002 9.22883 10.5 7.5ZM14.2335 21.15C14.2633 21.3448 14.2545 21.5436 14.2075 21.735C14.1604 21.9264 14.0761 22.1067 13.9594 22.2655C13.8426 22.4243 13.6958 22.5586 13.5271 22.6606C13.3585 22.7626 13.1714 22.8303 12.9765 22.86C11.0595 23.151 9.537 23.5935 8.5365 24.0825C6.7065 24.978 8.8455 25.6215 9.9615 25.9695C11.952 26.592 14.7945 27 18 27C21.2055 27 24.048 26.592 26.0385 25.9695C27.162 25.6185 29.2935 24.9795 27.4635 24.0825C26.463 23.5935 24.9405 23.1525 23.0235 22.86C22.8265 22.833 22.6368 22.767 22.4656 22.6661C22.2943 22.5651 22.1448 22.431 22.0257 22.2717C21.9067 22.1124 21.8206 21.9311 21.7723 21.7382C21.724 21.5453 21.7145 21.3447 21.7445 21.1481C21.7744 20.9516 21.8431 20.7629 21.9466 20.5931C22.0501 20.4233 22.1864 20.2758 22.3474 20.1592C22.5084 20.0425 22.691 19.959 22.8846 19.9136C23.0782 19.8682 23.2789 19.8617 23.475 19.8945C25.557 20.2095 27.408 20.715 28.7835 21.3885C30.1095 22.038 31.5 23.1315 31.5 24.75C31.5 25.9665 30.714 26.85 29.949 27.4155C26.724 29.7975 21.804 30 18 30C14.577 30 11.4195 29.568 9.0675 28.833C7.1925 28.248 4.5 27.093 4.5 24.75C4.5 23.13 5.8905 22.038 7.2165 21.39C8.592 20.715 10.4445 20.211 12.5235 19.8945C12.7183 19.8647 12.9171 19.8735 13.1085 19.9205C13.2999 19.9676 13.4802 20.0519 13.639 20.1686C13.7978 20.2854 13.9321 20.4322 14.0341 20.6009C14.1361 20.7695 14.2038 20.9551 14.2335 21.15Z" fill="#478CCF"/>
<path d="M36 25.5C36 29.0286 33.0286 32 29.5 32C25.9714 32 23 29.0286 23 25.5C23 21.9714 25.9714 19 29.5 19C33.0286 19 36 21.9714 36 25.5Z" fill="#F0F6F9"/>
<path d="M33 25.5C33 27.4 31.4 29 29.5 29C27.6 29 26 27.4 26 25.5C26 23.6 27.6 22 29.5 22C31.4 22 33 23.6 33 25.5Z" fill="#34A946"/>
</g>
<defs>
<clipPath id="clip0_5295_8882">
<rect width="36" height="36" fill="white"/>
</clipPath>
</defs>
</svg>
