<svg width="47" height="47" viewBox="0 0 47 47" fill="none" xmlns="http://www.w3.org/2000/svg">
<path d="M33.4997 30.3587C35.4709 31.1963 36.6663 32.2951 36.6663 33.5C36.6663 36.1236 30.9948 38.25 23.9997 38.25C17.0045 38.25 11.333 36.1236 11.333 33.5C11.333 32.2967 12.5284 31.1947 14.4997 30.3587" stroke="#478CCF" stroke-width="3" stroke-linecap="round" stroke-linejoin="round"/>
<path d="M31.9163 18.3697C31.9163 23.2669 23.9997 31.9167 23.9997 31.9167C23.9997 31.9167 16.083 23.2669 16.083 18.3697C16.083 13.474 19.6281 9.75 23.9997 9.75C28.3713 9.75 31.9163 13.474 31.9163 18.3697Z" stroke="#478CCF" stroke-width="3" stroke-linecap="round" stroke-linejoin="round"/>
<path d="M23.9993 19.25C24.8738 19.25 25.5827 18.5411 25.5827 17.6667C25.5827 16.7922 24.8738 16.0833 23.9993 16.0833C23.1249 16.0833 22.416 16.7922 22.416 17.6667C22.416 18.5411 23.1249 19.25 23.9993 19.25Z" stroke="#478CCF" stroke-width="3" stroke-linecap="round" stroke-linejoin="round"/>
<path d="M43 34.5C43 38.0286 40.0286 41 36.5 41C32.9714 41 30 38.0286 30 34.5C30 30.9714 32.9714 28 36.5 28C40.0286 28 43 30.9714 43 34.5Z" fill="#F0F6F9"/>
<path d="M40 34.5C40 36.4 38.4 38 36.5 38C34.6 38 33 36.4 33 34.5C33 32.6 34.6 31 36.5 31C38.4 31 40 32.6 40 34.5Z" fill="#34A946"/>
</svg>
