<svg width="55" height="52" viewBox="0 0 55 52" fill="none" xmlns="http://www.w3.org/2000/svg">
<path d="M39.8575 39.5719C39.8575 35.3623 34.7413 31.9527 28.4288 31.9527C22.1163 31.9527 17 35.3623 17 39.5719M28.4288 26.2384C26.408 26.2384 24.4701 25.4356 23.0412 24.0068C21.6123 22.5779 20.8096 20.6399 20.8096 18.6192C20.8096 16.5984 21.6123 14.6605 23.0412 13.2316C24.4701 11.8027 26.408 11 28.4288 11C30.4495 11 32.3875 11.8027 33.8163 13.2316C35.2452 14.6605 36.0479 16.5984 36.0479 18.6192C36.0479 20.6399 35.2452 22.5779 33.8163 24.0068C32.3875 25.4356 30.4495 26.2384 28.4288 26.2384Z" stroke="#478CCF" stroke-width="3" stroke-linecap="round" stroke-linejoin="round"/>
<path d="M49 38.5C49 42.0286 46.0286 45 42.5 45C38.9714 45 36 42.0286 36 38.5C36 34.9714 38.9714 32 42.5 32C46.0286 32 49 34.9714 49 38.5Z" fill="#F0F6F9"/>
<path d="M46 38.5C46 40.4 44.4 42 42.5 42C40.6 42 39 40.4 39 38.5C39 36.6 40.6 35 42.5 35C44.4 35 46 36.6 46 38.5Z" fill="#34A946"/>
</svg>
