<svg width="60" height="60" viewBox="0 0 60 60" fill="none" xmlns="http://www.w3.org/2000/svg">
<g clip-path="url(#clip0_5291_8860)">
<path d="M29.7402 10.9988C19.2122 10.9988 10.6465 19.5646 10.6465 30.0926C10.6465 40.6206 19.2122 49.1863 29.7402 49.1863C40.2682 49.1863 48.834 40.6206 48.834 30.0926C48.834 19.5646 40.2682 10.9988 29.7402 10.9988ZM29.7402 13.9363C38.6805 13.9363 45.8965 21.1523 45.8965 30.0926C45.8965 39.0329 38.6805 46.2488 29.7402 46.2488C20.8 46.2488 13.584 39.0329 13.584 30.0926C13.584 21.1523 20.8 13.9363 29.7402 13.9363ZM24.1884 22.4257L22.0734 24.5407L27.6311 30.0926L22.0763 35.6445L24.1913 37.7595L29.7402 32.2032L35.2921 37.7551L37.4071 35.6445L31.8508 30.0926L37.4027 24.5407L35.2921 22.4257L29.7402 27.9835L24.1884 22.4287V22.4257Z" fill="#478CCF"/>
</g>
<defs>
<clipPath id="clip0_5291_8860">
<rect width="59.4815" height="59.4815" fill="white"/>
</clipPath>
</defs>
</svg>
