<svg width="60" height="60" viewBox="0 0 60 60" fill="none" xmlns="http://www.w3.org/2000/svg">
<g clip-path="url(#clip0_5291_8842)">
<path d="M48.5236 42.8819C48.5236 39.5638 45.3426 36.7428 40.9044 35.6952M37.0948 42.8819C37.0948 38.6724 31.9786 35.2628 25.6661 35.2628C19.3536 35.2628 14.2373 38.6724 14.2373 42.8819M37.0948 29.5484C39.1156 29.5484 41.0535 28.7457 42.4824 27.3168C43.9113 25.8879 44.714 23.9499 44.714 21.9292C44.714 19.9085 43.9113 17.9705 42.4824 16.5416C41.0535 15.1128 39.1156 14.31 37.0948 14.31M25.6661 29.5484C23.6453 29.5484 21.7074 28.7457 20.2785 27.3168C18.8496 25.8879 18.0469 23.9499 18.0469 21.9292C18.0469 19.9085 18.8496 17.9705 20.2785 16.5416C21.7074 15.1128 23.6453 14.31 25.6661 14.31C27.6868 14.31 29.6248 15.1128 31.0536 16.5416C32.4825 17.9705 33.2852 19.9085 33.2852 21.9292C33.2852 23.9499 32.4825 25.8879 31.0536 27.3168C29.6248 28.7457 27.6868 29.5484 25.6661 29.5484Z" stroke="#478CCF" stroke-width="3" stroke-linecap="round" stroke-linejoin="round"/>
</g>
<defs>
<clipPath id="clip0_5291_8842">
<rect width="59.4815" height="59.4815" fill="white"/>
</clipPath>
</defs>
</svg>
