<svg width="44" height="44" viewBox="0 0 44 44" fill="none" xmlns="http://www.w3.org/2000/svg">
<path d="M14.6667 16.5002H29.3333M14.6667 23.8335H25.6667M16.5 33.0002H11C9.54131 33.0002 8.14236 32.4207 7.11091 31.3893C6.07946 30.3578 5.5 28.9589 5.5 27.5002V12.8335C5.5 11.3748 6.07946 9.97586 7.11091 8.94441C8.14236 7.91296 9.54131 7.3335 11 7.3335H33C34.4587 7.3335 35.8576 7.91296 36.8891 8.94441C37.9205 9.97586 38.5 11.3748 38.5 12.8335V27.5002C38.5 28.9589 37.9205 30.3578 36.8891 31.3893C35.8576 32.4207 34.4587 33.0002 33 33.0002H27.5L22 38.5002L16.5 33.0002Z" stroke="#478CCF" stroke-width="3" stroke-linecap="round" stroke-linejoin="round"/>
</svg>
