<svg width="46" height="46" viewBox="0 0 46 46" fill="none" xmlns="http://www.w3.org/2000/svg">
<g clip-path="url(#clip0_5546_9848)">
<g clip-path="url(#clip1_5546_9848)">
<path d="M8.72445 17.7238C10.1746 17.7238 11.3503 16.5503 11.3503 15.1026C11.3503 13.655 10.1746 12.4815 8.72445 12.4815C7.27425 12.4815 6.09863 13.655 6.09863 15.1026C6.09863 16.5503 7.27425 17.7238 8.72445 17.7238Z" fill="#478CCF"/>
<path d="M8.72445 25.5872C10.1746 25.5872 11.3503 24.4137 11.3503 22.966C11.3503 21.5184 10.1746 20.3449 8.72445 20.3449C7.27425 20.3449 6.09863 21.5184 6.09863 22.966C6.09863 24.4137 7.27425 25.5872 8.72445 25.5872Z" fill="#478CCF"/>
<path d="M8.72445 33.4506C10.1746 33.4506 11.3503 32.2771 11.3503 30.8295C11.3503 29.3819 10.1746 28.2083 8.72445 28.2083C7.27425 28.2083 6.09863 29.3819 6.09863 30.8295C6.09863 32.2771 7.27425 33.4506 8.72445 33.4506Z" fill="#478CCF"/>
<path d="M36.2952 16.4132H17.9145C17.1792 16.4132 16.6016 15.8366 16.6016 15.1027C16.6016 14.3687 17.1792 13.7921 17.9145 13.7921H36.2952C37.0304 13.7921 37.6081 14.3687 37.6081 15.1027C37.6081 15.8366 37.0304 16.4132 36.2952 16.4132ZM36.2952 24.2766H17.9145C17.1792 24.2766 16.6016 23.7 16.6016 22.9661C16.6016 22.2321 17.1792 21.6555 17.9145 21.6555H36.2952C37.0304 21.6555 37.6081 22.2321 37.6081 22.9661C37.6081 23.7 37.0304 24.2766 36.2952 24.2766ZM36.2952 32.14H17.9145C17.1792 32.14 16.6016 31.5634 16.6016 30.8295C16.6016 30.0956 17.1792 29.5189 17.9145 29.5189H36.2952C37.0304 29.5189 37.6081 30.0956 37.6081 30.8295C37.6081 31.5634 37.0304 32.14 36.2952 32.14Z" fill="#478CCF"/>
<path d="M29.6787 31.6158C29.6787 27.5211 32.9981 24.2018 37.0928 24.2018C41.1875 24.2018 44.5069 27.5211 44.5069 31.6158C44.5069 35.7105 41.1875 39.0299 37.0928 39.0299C32.9981 39.0299 29.6787 35.7105 29.6787 31.6158Z" fill="#F0F6F9" stroke="#478CCF" stroke-width="2" stroke-linecap="round" stroke-linejoin="round"/>
<path d="M33.7979 31.6158L36.2692 34.0872L40.3881 29.9683" fill="#F0F6F9"/>
<path d="M33.7979 31.6158L36.2692 34.0872L40.3881 29.9683" stroke="#478CCF" stroke-width="2" stroke-linecap="round" stroke-linejoin="round"/>
</g>
</g>
<defs>
<clipPath id="clip0_5546_9848">
<rect width="44.5455" height="44.5455" fill="white" transform="translate(0.929688 0.784576)"/>
</clipPath>
<clipPath id="clip1_5546_9848">
<rect width="47.7796" height="47.7796" fill="white" transform="translate(0.0224609 0.311951)"/>
</clipPath>
</defs>
</svg>
