<svg width="55" height="52" viewBox="0 0 55 52" fill="none" xmlns="http://www.w3.org/2000/svg">
<path d="M31.8575 40.5719C31.8575 36.3623 26.7413 32.9527 20.4288 32.9527C14.1163 32.9527 9 36.3623 9 40.5719M20.4288 27.2384C18.408 27.2384 16.4701 26.4356 15.0412 25.0068C13.6123 23.5779 12.8096 21.6399 12.8096 19.6192C12.8096 17.5984 13.6123 15.6605 15.0412 14.2316C16.4701 12.8027 18.408 12 20.4288 12C22.4495 12 24.3875 12.8027 25.8163 14.2316C27.2452 15.6605 28.0479 17.5984 28.0479 19.6192C28.0479 21.6399 27.2452 23.5779 25.8163 25.0068C24.3875 26.4356 22.4495 27.2384 20.4288 27.2384Z" stroke="#478CCF" stroke-width="3" stroke-linecap="round" stroke-linejoin="round"/>
<path d="M38.2445 33.2269L39.5032 32.8383C39.6023 32.8077 39.7065 32.7971 39.8098 32.8071C39.913 32.8171 40.0133 32.8476 40.1049 32.8967C40.1965 32.9457 40.2776 33.0126 40.3436 33.0933C40.4095 33.174 40.4591 33.267 40.4894 33.367C40.5198 33.467 40.5303 33.5721 40.5203 33.6762C40.5104 33.7803 40.4802 33.8815 40.4315 33.9738C40.3828 34.0662 40.3166 34.148 40.2366 34.2145C40.1565 34.281 40.0643 34.331 39.9651 34.3616L36.9447 35.2933C36.8455 35.3239 36.7412 35.3345 36.6379 35.3244C36.5346 35.3143 36.4343 35.2839 36.3427 35.2347C36.2511 35.1855 36.17 35.1186 36.1041 35.0378C36.0381 34.957 35.9886 34.8639 35.9584 34.7638L35.0345 31.7178C35.0042 31.6178 34.9937 31.5128 35.0036 31.4086C35.0136 31.3045 35.0437 31.2034 35.0924 31.111C35.1411 31.0187 35.2074 30.9369 35.2874 30.8704C35.3674 30.8038 35.4597 30.7538 35.5589 30.7232C35.7592 30.6615 35.9756 30.6825 36.1606 30.7816C36.3455 30.8808 36.4839 31.05 36.5451 31.252L36.8926 32.3995C38.7941 29.446 42.5662 28.1758 45.9151 29.5598C46.9166 29.9738 47.816 30.6041 48.55 31.4063C49.284 32.2085 49.8347 33.1632 50.1634 34.2031C50.1971 34.3033 50.2107 34.4093 50.2034 34.5148C50.196 34.6203 50.1679 34.7233 50.1206 34.8178C50.0733 34.9122 50.0079 34.9962 49.9281 35.0648C49.8483 35.1335 49.7557 35.1854 49.6557 35.2176C49.5558 35.2497 49.4505 35.2615 49.346 35.2522C49.2415 35.2428 49.1399 35.2126 49.0472 35.1632C48.9544 35.1139 48.8723 35.0464 48.8057 34.9647C48.739 34.8829 48.6892 34.7886 48.6592 34.6873C48.3256 33.6309 47.7025 32.6912 46.8618 31.9766C46.0212 31.2621 44.9973 30.8019 43.9084 30.6492C42.8194 30.4965 41.7099 30.6575 40.7078 31.1136C39.7057 31.5697 38.8512 32.3023 38.2445 33.2269ZM47.9785 39.7527L46.5769 40.1054C46.4754 40.1335 46.3693 40.1408 46.265 40.127C46.1607 40.1131 46.0601 40.0784 45.9693 40.0248C45.8784 39.9712 45.7991 39.8999 45.7361 39.8149C45.673 39.73 45.6273 39.6332 45.6019 39.5302C45.5764 39.4273 45.5716 39.3202 45.5877 39.2153C45.6039 39.1105 45.6406 39.0099 45.6958 38.9196C45.7511 38.8292 45.8237 38.7509 45.9093 38.6893C45.995 38.6276 46.092 38.5839 46.1947 38.5606L49.0714 37.8367C49.2212 37.7648 49.3898 37.7425 49.553 37.773C49.7103 37.7939 49.8577 37.862 49.976 37.9685C50.0943 38.0751 50.1781 38.2151 50.2164 38.3703L50.9807 41.46C51.026 41.6629 50.9908 41.8756 50.8825 42.0527C50.7743 42.2297 50.6016 42.3571 50.4015 42.4074C50.2014 42.4578 49.9896 42.4272 49.8116 42.3221C49.6336 42.2171 49.5034 42.046 49.4488 41.8454L49.1882 40.7927C48.4279 41.896 47.3866 42.7721 46.174 43.3288C44.9613 43.8854 43.6223 44.1019 42.2979 43.9555C40.9735 43.8091 39.7127 43.3052 38.6484 42.4969C37.5842 41.6885 36.7558 40.6057 36.2506 39.3625L36.0453 38.8576C36.006 38.7608 35.986 38.6572 35.9864 38.5526C35.9868 38.448 36.0076 38.3445 36.0477 38.2481C36.0878 38.1516 36.1463 38.0641 36.2199 37.9904C36.2936 37.9168 36.3809 37.8584 36.4768 37.8188C36.6707 37.7388 36.8881 37.7397 37.0812 37.8213C37.1769 37.8617 37.2637 37.9207 37.3368 37.9949C37.4098 38.0692 37.4676 38.1572 37.5069 38.254L37.7122 38.7581C38.1148 39.7485 38.7779 40.6094 39.63 41.2476C40.4821 41.8859 41.4909 42.2774 42.5475 42.3798C43.6041 42.4823 44.6684 42.2918 45.6255 41.8289C46.5826 41.3661 47.3962 40.6477 47.9785 39.7527Z" fill="#478CCF"/>
</svg>
