<svg width="60" height="60" viewBox="0 0 60 60" fill="none" xmlns="http://www.w3.org/2000/svg">
<g clip-path="url(#clip0_5291_8864)">
<path d="M18.9783 21.5836L21.8659 20.6921C22.0935 20.622 22.3325 20.5977 22.5694 20.6207C22.8062 20.6436 23.0363 20.7135 23.2464 20.8261C23.4565 20.9387 23.6425 21.092 23.7939 21.2771C23.9453 21.4623 24.059 21.6757 24.1286 21.9052C24.1981 22.1346 24.2222 22.3757 24.1994 22.6145C24.1767 22.8534 24.1074 23.0854 23.9957 23.2973C23.884 23.5091 23.7321 23.6967 23.5485 23.8494C23.3649 24.002 23.1532 24.1167 22.9257 24.1869L15.9965 26.3243C15.7688 26.3945 15.5297 26.4187 15.2927 26.3957C15.0558 26.3726 14.8256 26.3026 14.6155 26.1898C14.4054 26.077 14.2193 25.9235 14.0681 25.7381C13.9168 25.5527 13.8032 25.3391 13.7339 25.1094L11.6144 18.1218C11.5448 17.8923 11.5207 17.6513 11.5435 17.4124C11.5663 17.1736 11.6355 16.9416 11.7472 16.7297C11.8589 16.5178 12.0109 16.3302 12.1945 16.1776C12.3781 16.0249 12.5897 15.9102 12.8172 15.8401C13.2768 15.6983 13.7733 15.7465 14.1977 15.974C14.622 16.2015 14.9393 16.5896 15.0799 17.0531L15.8769 19.6856C20.2392 12.9098 28.8929 9.99599 36.5757 13.171C38.8733 14.1207 40.9366 15.5667 42.6205 17.407C44.3043 19.2474 45.5677 21.4376 46.3219 23.8233C46.3992 24.0532 46.4303 24.2962 46.4134 24.5383C46.3966 24.7804 46.332 25.0167 46.2236 25.2333C46.1152 25.45 45.965 25.6427 45.7819 25.8002C45.5988 25.9577 45.3864 26.0768 45.1572 26.1506C44.9279 26.2244 44.6863 26.2513 44.4466 26.2299C44.2069 26.2085 43.9738 26.1392 43.761 26.0259C43.5481 25.9127 43.3598 25.7578 43.207 25.5703C43.0541 25.3829 42.9399 25.1666 42.8709 24.9341C42.1055 22.5105 40.6761 20.3547 38.7476 18.7155C36.8191 17.0763 34.4701 16.0206 31.972 15.6702C29.4739 15.3199 26.9284 15.6892 24.6295 16.7356C22.3307 17.7819 20.3704 19.4626 18.9783 21.5836ZM41.3093 36.5546L38.0938 37.3639C37.861 37.4283 37.6177 37.4451 37.3784 37.4133C37.139 37.3816 36.9084 37.3019 36.7 37.1789C36.4916 37.056 36.3097 36.8923 36.1649 36.6974C36.0202 36.5026 35.9155 36.2805 35.8571 36.0443C35.7986 35.8081 35.7876 35.5625 35.8246 35.3219C35.8616 35.0813 35.946 34.8506 36.0727 34.6434C36.1994 34.4361 36.3659 34.2565 36.5624 34.1151C36.7589 33.9737 36.9815 33.8733 37.217 33.8198L43.8165 32.1592C44.1604 31.9942 44.5471 31.9431 44.9216 32.0131C45.2823 32.0609 45.6204 32.2172 45.8918 32.4616C46.1632 32.706 46.3554 33.0271 46.4433 33.3832L48.1968 40.4713C48.3007 40.9369 48.2198 41.4249 47.9715 41.8311C47.7232 42.2373 47.3271 42.5294 46.868 42.6449C46.4089 42.7604 45.9232 42.6902 45.5147 42.4492C45.1063 42.2083 44.8076 41.8157 44.6824 41.3555L44.0846 38.9405C42.3404 41.4717 39.9515 43.4816 37.1696 44.7586C34.3876 46.0356 31.3157 46.5323 28.2773 46.1964C25.239 45.8606 22.3467 44.7045 19.9051 42.8501C17.4636 40.9957 15.5632 38.5116 14.4042 35.6594L13.9332 34.5012C13.843 34.2792 13.7971 34.0414 13.798 33.8015C13.799 33.5616 13.8468 33.3242 13.9387 33.1029C14.0307 32.8816 14.1649 32.6807 14.3338 32.5118C14.5027 32.3428 14.703 32.209 14.9232 32.1181C15.3678 31.9345 15.8666 31.9365 16.3098 32.1237C16.5292 32.2164 16.7284 32.3518 16.896 32.5222C17.0635 32.6925 17.1962 32.8945 17.2863 33.1165L17.7573 34.2729C18.6808 36.5451 20.202 38.52 22.1569 39.9842C24.1118 41.4485 26.4261 42.3466 28.85 42.5816C31.274 42.8166 33.7156 42.3796 35.9113 41.3178C38.107 40.256 39.9735 38.6078 41.3093 36.5546Z" fill="#478CCF"/>
</g>
<defs>
<clipPath id="clip0_5291_8864">
<rect width="39" height="39" fill="white" transform="translate(9.24121 9.59259)"/>
</clipPath>
</defs>
</svg>
