<svg width="44" height="44" viewBox="0 0 44 44" fill="none" xmlns="http://www.w3.org/2000/svg">
<path d="M13.1667 13.1667H27.8333M13.1667 20.5H24.1667M20.5 35.1667L18.6667 33.3333L15 29.6667H9.5C8.04131 29.6667 6.64236 29.0872 5.61091 28.0558C4.57946 27.0243 4 25.6254 4 24.1667V9.5C4 8.04131 4.57946 6.64236 5.61091 5.61091C6.64236 4.57946 8.04131 4 9.5 4H31.5C32.9587 4 34.3576 4.57946 35.3891 5.61091C36.4205 6.64236 37 8.04131 37 9.5V20.5" stroke="#478CCF" stroke-width="3" stroke-linecap="round" stroke-linejoin="round"/>
<path d="M31.5 24.6245C27.7044 24.6245 24.625 27.7039 24.625 31.4995C24.625 35.2951 27.7044 38.3745 31.5 38.3745C35.2956 38.3745 38.375 35.2951 38.375 31.4995C38.375 27.7039 35.2956 24.6245 31.5 24.6245Z" stroke="#478CCF" stroke-width="2" stroke-miterlimit="10"/>
<path d="M31.5 27.833V32.0726H34.9375" stroke="#478CCF" stroke-width="2" stroke-linecap="round" stroke-linejoin="round"/>
</svg>
