<svg width="47" height="47" viewBox="0 0 47 47" fill="none" xmlns="http://www.w3.org/2000/svg">
<path d="M33.4997 30.3586C35.4709 31.1962 36.6663 32.2951 36.6663 33.5C36.6663 36.1236 30.9948 38.25 23.9997 38.25C17.0045 38.25 11.333 36.1236 11.333 33.5C11.333 32.2966 12.5284 31.1946 14.4997 30.3586" stroke="#478CCF" stroke-width="3" stroke-linecap="round" stroke-linejoin="round"/>
<path d="M31.9163 18.3697C31.9163 23.2669 23.9997 31.9167 23.9997 31.9167C23.9997 31.9167 16.083 23.2669 16.083 18.3697C16.083 13.474 19.6281 9.75 23.9997 9.75C28.3713 9.75 31.9163 13.474 31.9163 18.3697Z" stroke="#478CCF" stroke-width="3" stroke-linecap="round" stroke-linejoin="round"/>
<path d="M23.9993 19.2499C24.8738 19.2499 25.5827 18.541 25.5827 17.6666C25.5827 16.7921 24.8738 16.0833 23.9993 16.0833C23.1249 16.0833 22.416 16.7921 22.416 17.6666C22.416 18.541 23.1249 19.2499 23.9993 19.2499Z" stroke="#478CCF" stroke-width="3" stroke-linecap="round" stroke-linejoin="round"/>
</svg>
