<svg width="36" height="36" viewBox="0 0 36 36" fill="none" xmlns="http://www.w3.org/2000/svg">
<g clip-path="url(#clip0_5295_8882)">
<path fill-rule="evenodd" clip-rule="evenodd" d="M18 5.99994C17.4091 5.99994 16.8239 6.11633 16.2779 6.34248C15.732 6.56863 15.2359 6.90009 14.818 7.31796C14.4002 7.73582 14.0687 8.2319 13.8425 8.77786C13.6164 9.32383 13.5 9.90899 13.5 10.4999C13.5 11.0909 13.6164 11.676 13.8425 12.222C14.0687 12.768 14.4002 13.2641 14.818 13.6819C15.2359 14.0998 15.732 14.4313 16.2779 14.6574C16.8239 14.8835 17.4091 14.9999 18 14.9999C19.1935 14.9999 20.3381 14.5258 21.182 13.6819C22.0259 12.838 22.5 11.6934 22.5 10.4999C22.5 9.30646 22.0259 8.16187 21.182 7.31796C20.3381 6.47404 19.1935 5.99994 18 5.99994ZM10.5 10.4999C10.5003 9.08089 10.9032 7.69105 11.6618 6.49182C12.4205 5.2926 13.5038 4.33321 14.7859 3.72508C16.068 3.11695 17.4964 2.88504 18.905 3.05628C20.3137 3.22752 21.6449 3.79488 22.744 4.69248C23.8431 5.59007 24.665 6.78106 25.1142 8.12712C25.5635 9.47318 25.6216 10.9191 25.2819 12.2969C24.9422 13.6746 24.2186 14.9278 23.1952 15.9107C22.1717 16.8937 20.8904 17.5661 19.5 17.8499V25.4999C19.5 25.8978 19.342 26.2793 19.0607 26.5606C18.7794 26.8419 18.3978 26.9999 18 26.9999C17.6022 26.9999 17.2206 26.8419 16.9393 26.5606C16.658 26.2793 16.5 25.8978 16.5 25.4999V17.8499C14.8062 17.5036 13.284 16.583 12.1907 15.2437C11.0974 13.9045 10.5002 12.2288 10.5 10.4999ZM14.2335 24.1499C14.2633 24.3448 14.2545 24.5436 14.2075 24.735C14.1604 24.9264 14.0761 25.1066 13.9594 25.2654C13.8426 25.4242 13.6958 25.5585 13.5271 25.6605C13.3585 25.7625 13.1714 25.8303 12.9765 25.8599C11.0595 26.1509 9.537 26.5934 8.5365 27.0824C6.7065 27.9779 8.8455 28.6214 9.9615 28.9694C11.952 29.5919 14.7945 29.9999 18 29.9999C21.2055 29.9999 24.048 29.5919 26.0385 28.9694C27.162 28.6184 29.2935 27.9794 27.4635 27.0824C26.463 26.5934 24.9405 26.1524 23.0235 25.8599C22.8265 25.8329 22.6368 25.767 22.4656 25.666C22.2943 25.565 22.1448 25.431 22.0257 25.2717C21.9067 25.1124 21.8206 24.931 21.7723 24.7381C21.724 24.5452 21.7145 24.3447 21.7445 24.1481C21.7744 23.9515 21.8431 23.7628 21.9466 23.5931C22.0501 23.4233 22.1864 23.2758 22.3474 23.1591C22.5084 23.0425 22.691 22.959 22.8846 22.9135C23.0782 22.8681 23.2789 22.8616 23.475 22.8944C25.557 23.2094 27.408 23.7149 28.7835 24.3884C30.1095 25.0379 31.5 26.1314 31.5 27.7499C31.5 28.9664 30.714 29.8499 29.949 30.4154C26.724 32.7974 21.804 32.9999 18 32.9999C14.577 32.9999 11.4195 32.5679 9.0675 31.8329C7.1925 31.2479 4.5 30.0929 4.5 27.7499C4.5 26.1299 5.8905 25.0379 7.2165 24.3899C8.592 23.7149 10.4445 23.2109 12.5235 22.8944C12.7183 22.8646 12.9171 22.8735 13.1085 22.9205C13.2999 22.9675 13.4802 23.0518 13.639 23.1686C13.7978 23.2853 13.9321 23.4322 14.0341 23.6008C14.1361 23.7695 14.2038 23.9551 14.2335 24.1499Z" fill="#478CCF"/>
</g>
<defs>
<clipPath id="clip0_5295_8882">
<rect width="36" height="36" fill="white"/>
</clipPath>
</defs>
</svg>
