<svg width="60" height="60" viewBox="0 0 60 60" fill="none" xmlns="http://www.w3.org/2000/svg">
<path d="M42.4139 31.8106L42.4174 31.8226L42.4211 31.8345L43.676 35.863L43.8949 36.5656H44.6308H48.6931C48.7787 36.5656 48.8306 36.5905 48.8696 36.622C48.9157 36.6591 48.9627 36.7226 48.99 36.8102C49.0456 36.9887 48.9958 37.1478 48.862 37.2492L45.5772 39.7364L45.0172 40.1604L45.2262 40.8311L46.4811 44.8596L46.4814 44.8604C46.5424 45.0558 46.473 45.2074 46.3543 45.2973C46.2936 45.3432 46.233 45.3612 46.1864 45.3626C46.1484 45.3638 46.0918 45.356 46.0142 45.2972L46.014 45.297L42.729 42.8096L42.1254 42.3525L41.5217 42.8096L38.2367 45.297L38.2365 45.2972C38.1589 45.356 38.1024 45.3638 38.0645 45.3626C38.0179 45.3611 37.9574 45.3432 37.8967 45.2972C37.7782 45.2075 37.7079 45.0551 37.7695 44.8577L37.7695 44.8575L39.0245 40.8312L39.2335 40.1608L38.6738 39.7367L35.3888 37.247L35.3884 37.2467C35.2563 37.1467 35.206 36.9884 35.2617 36.8096C35.2889 36.722 35.3358 36.6587 35.3817 36.6217C35.4204 36.5905 35.4721 36.5656 35.5576 36.5656H39.6199H40.3558L40.5747 35.863L41.8296 31.8345L41.8333 31.8226L41.8368 31.8106C41.8546 31.7478 41.8924 31.6925 41.9445 31.6532C41.9966 31.6139 42.0601 31.5926 42.1254 31.5926C42.1906 31.5926 42.2541 31.6139 42.3062 31.6532C42.3583 31.6925 42.3961 31.7478 42.4139 31.8106Z" stroke="#478CCF" stroke-width="2"/>
<path d="M32.0987 44.1645C32.0987 39.9549 26.9825 36.5453 20.67 36.5453C14.3575 36.5453 9.24121 39.9549 9.24121 44.1645M20.67 30.8309C18.6492 30.8309 16.7113 30.0282 15.2824 28.5993C13.8535 27.1705 13.0508 25.2325 13.0508 23.2118C13.0508 21.191 13.8535 19.2531 15.2824 17.8242C16.7113 16.3953 18.6492 15.5926 20.67 15.5926C22.6907 15.5926 24.6287 16.3953 26.0576 17.8242C27.4864 19.2531 28.2892 21.191 28.2892 23.2118C28.2892 25.2325 27.4864 27.1705 26.0576 28.5993C24.6287 30.0282 22.6907 30.8309 20.67 30.8309Z" stroke="#478CCF" stroke-width="3" stroke-linecap="round" stroke-linejoin="round"/>
</svg>
